<?xml version="1.0" encoding="UTF-8" standalone="no"?>
<!-- Created with Inkscape (http://www.inkscape.org/) -->

<svg
   xmlns:dc="http://purl.org/dc/elements/1.1/"
   xmlns:cc="http://creativecommons.org/ns#"
   xmlns:rdf="http://www.w3.org/1999/02/22-rdf-syntax-ns#"
   xmlns:svg="http://www.w3.org/2000/svg"
   xmlns="http://www.w3.org/2000/svg"
   xmlns:sodipodi="http://sodipodi.sourceforge.net/DTD/sodipodi-0.dtd"
   xmlns:inkscape="http://www.inkscape.org/namespaces/inkscape"
   width="210mm"
   height="297mm"
   viewBox="0 0 210 297"
   version="1.1"
   id="svg42"
   inkscape:version="0.92.3 (2405546, 2018-03-11)"
   sodipodi:docname="favicon.svg"
   inkscape:export-filename="C:\Users\hugod\Desktop\favicon.png"
   inkscape:export-xdpi="96"
   inkscape:export-ydpi="96">
  <defs
     id="defs36" />
  <sodipodi:namedview
     id="base"
     pagecolor="#ffffff"
     bordercolor="#666666"
     borderopacity="1.0"
     inkscape:pageopacity="0.0"
     inkscape:pageshadow="2"
     inkscape:zoom="0.98994949"
     inkscape:cx="347.57436"
     inkscape:cy="839.05238"
     inkscape:document-units="mm"
     inkscape:current-layer="layer1"
     showgrid="false"
     inkscape:object-nodes="false"
     inkscape:snap-bbox="true"
     inkscape:snap-global="false"
     inkscape:window-width="1920"
     inkscape:window-height="1001"
     inkscape:window-x="-9"
     inkscape:window-y="-9"
     inkscape:window-maximized="1" />
  <metadata
     id="metadata39">
    <rdf:RDF>
      <cc:Work
         rdf:about="">
        <dc:format>image/svg+xml</dc:format>
        <dc:type
           rdf:resource="http://purl.org/dc/dcmitype/StillImage" />
        <dc:title />
      </cc:Work>
    </rdf:RDF>
  </metadata>
  <g
     inkscape:label="Camada 1"
     inkscape:groupmode="layer"
     id="layer1">
    <g
       id="g4677"
       transform="matrix(0.08086413,0,0,0.09682715,29.19011,38.978943)">
      <path
         id="path4576-7-7-1"
         d="m 79.222987,121.88551 c -10.45259,0.0334 -19.861828,8.66014 -18.871414,19.15155 1.469836,15.56988 15.058064,16.89998 19.143104,38.32944 7.1475,-24.17545 17.40674,-23.75238 18.70867,-38.45054 0.92986,-10.4976 -8.52778,-19.06388 -18.98036,-19.03045 z m 0.53776,8.94353 c 4.4171,-0.014 8.00887,3.84101 8.02249,8.61061 0.0135,4.76959 -3.55611,8.64756 -7.97321,8.66177 -4.41724,0.0143 -8.009224,-3.84086 -8.022856,-8.61061 -0.01353,-4.76974 3.556326,-8.64778 7.973576,-8.66177 z"
         style="opacity:1;fill:#00a1f1;fill-opacity:1;stroke-width:0.22209908"
         inkscape:connector-curvature="0"
         sodipodi:nodetypes="sscssccccc" />
      <path
         inkscape:connector-curvature="0"
         id="path4529-6-3-0"
         d="m 94.149489,145.11508 a 8.4324407,8.7096769 22.58128 0 0 -7.306089,8.27895 l -12.892183,5.51619 a 8.4324407,8.7096769 22.58128 0 0 -8.532592,-4.13375 8.4324407,8.7096769 22.58128 0 0 -7.243673,9.93466 8.4324407,8.7096769 22.58128 0 0 9.547303,7.18442 8.4324407,8.7096769 22.58128 0 0 7.305684,-9.19755 l 12.532387,-5.326 a 8.4324407,8.7096769 22.58128 0 0 8.892819,4.86212 8.4324407,8.7096769 22.58128 0 0 5.114915,-2.88571 l 17.61613,8.76544 0.0281,-0.0425 a 8.4324407,8.7096769 22.58128 0 0 -0.12003,2.99594 8.4324407,8.7096769 22.58128 0 0 9.54732,7.18439 8.4324407,8.7096769 22.58128 0 0 7.24325,-9.93458 8.4324407,8.7096769 22.58128 0 0 -0.6666,-2.34717 l 13.73832,-12.32868 a 8.4324407,8.7096769 22.58128 0 0 6.52224,1.73922 8.4324407,8.7096769 22.58128 0 0 7.24327,-9.93456 8.4324407,8.7096769 22.58128 0 0 -9.54691,-7.18447 8.4324407,8.7096769 22.58128 0 0 -7.24362,9.93465 8.4324407,8.7096769 22.58128 0 0 0.42654,1.73 l -14.036,12.54614 a 8.4324407,8.7096769 22.58128 0 0 -5.98412,-1.33962 8.4324407,8.7096769 22.58128 0 0 -5.06396,2.82359 l -17.6767,-8.7499 a 8.4324407,8.7096769 22.58128 0 0 0.10112,-2.90688 8.4324407,8.7096769 22.58128 0 0 -9.546884,-7.1845 z"
         style="opacity:1;fill:#b7bec8;fill-opacity:1;stroke-width:0.21722342" />
      <path
         inkscape:connector-curvature="0"
         id="path4655"
         d="m 108.97378,170.26143 c -0.50845,-2.72491 -2.54655,-8.63548 -4.20182,-12.18536 -2.12502,-4.55733 -4.67184,-8.41103 -10.449361,-15.81135 -7.076382,-9.06402 -8.654905,-11.59943 -10.312258,-16.56327 -1.69585,-5.07912 -1.761102,-12.62472 -0.14689,-16.98559 1.65516,-4.4715 5.873476,-9.464723 10.707996,-12.675043 2.669709,-1.77282 7.507003,-3.44418 11.350523,-3.92179 7.2422,-0.89996 14.96436,1.37448 20.60529,6.0689 6.34258,5.278343 9.56513,12.604153 8.93899,20.320993 -0.60429,7.44758 -2.54396,11.7634 -9.91137,22.05272 -7.3381,10.24843 -10.81219,16.52311 -13.93443,25.1674 -0.75182,2.08153 -1.59172,4.29141 -1.86643,4.91085 l -0.49948,1.12625 z m 5.44864,-42.59729 c 2.29093,-0.98552 4.29387,-3.10923 5.63991,-5.97995 0.83389,-1.77843 0.9967,-2.654 0.9936,-5.34381 -0.004,-3.82456 -0.76599,-5.81659 -3.25707,-8.51906 -2.50654,-2.71925 -4.07712,-3.3934 -7.90372,-3.3925 -2.74905,7.6e-4 -3.49209,0.14645 -5.10917,1.00243 -4.14769,2.19554 -6.234916,5.80763 -6.240853,10.80032 -0.0048,4.04832 0.918209,6.57438 3.276203,8.96616 1.71786,1.74249 3.14609,2.6774 5.04371,3.30163 1.50694,0.49572 5.48571,0.0559 7.55739,-0.83522 z"
         style="fill:#535d6c;fill-opacity:1;stroke-width:0.37845737" />
    </g>
  </g>
</svg>
