<?xml version="1.0" encoding="UTF-8" standalone="no"?>
<!-- Created with Inkscape (http://www.inkscape.org/) -->

<svg
   xmlns:dc="http://purl.org/dc/elements/1.1/"
   xmlns:cc="http://creativecommons.org/ns#"
   xmlns:rdf="http://www.w3.org/1999/02/22-rdf-syntax-ns#"
   xmlns:svg="http://www.w3.org/2000/svg"
   xmlns="http://www.w3.org/2000/svg"
   xmlns:sodipodi="http://sodipodi.sourceforge.net/DTD/sodipodi-0.dtd"
   xmlns:inkscape="http://www.inkscape.org/namespaces/inkscape"
   width="210mm"
   height="297mm"
   viewBox="0 0 210 297"
   version="1.1"
   id="svg42"
   inkscape:version="0.92.3 (2405546, 2018-03-11)"
   sodipodi:docname="logo-horizontal-light.svg"
   inkscape:export-filename="C:\Users\hugod\Desktop\logo-horizontal-light.png"
   inkscape:export-xdpi="96"
   inkscape:export-ydpi="96">
  <defs
     id="defs36" />
  <sodipodi:namedview
     id="base"
     pagecolor="#ffffff"
     bordercolor="#666666"
     borderopacity="1.0"
     inkscape:pageopacity="0.0"
     inkscape:pageshadow="2"
     inkscape:zoom="0.98994949"
     inkscape:cx="125.84587"
     inkscape:cy="809.79342"
     inkscape:document-units="mm"
     inkscape:current-layer="layer1"
     showgrid="false"
     inkscape:object-nodes="false"
     inkscape:snap-bbox="true"
     inkscape:snap-global="false"
     inkscape:window-width="1920"
     inkscape:window-height="1001"
     inkscape:window-x="-9"
     inkscape:window-y="-9"
     inkscape:window-maximized="1" />
  <metadata
     id="metadata39">
    <rdf:RDF>
      <cc:Work
         rdf:about="">
        <dc:format>image/svg+xml</dc:format>
        <dc:type
           rdf:resource="http://purl.org/dc/dcmitype/StillImage" />
        <dc:title />
      </cc:Work>
    </rdf:RDF>
  </metadata>
  <g
     inkscape:label="Camada 1"
     inkscape:groupmode="layer"
     id="layer1">
    <g
       transform="matrix(0.36500254,0,0,0.36500254,89.389074,2.9732859)"
       id="g827">
      <path
         id="path4576-7-7-1"
         d="m -173.39988,124.81447 c -10.45259,0.0334 -19.86183,8.66014 -18.87141,19.15155 1.46983,15.56988 15.05806,16.89998 19.1431,38.32944 7.1475,-24.17545 17.40674,-23.75238 18.70867,-38.45054 0.92986,-10.4976 -8.52778,-19.06388 -18.98036,-19.03045 z m 0.53776,8.94353 c 4.4171,-0.014 8.00887,3.84101 8.02249,8.61061 0.0135,4.76959 -3.55611,8.64756 -7.97321,8.66177 -4.41724,0.0143 -8.00922,-3.84086 -8.02285,-8.61061 -0.0135,-4.76974 3.55632,-8.64778 7.97357,-8.66177 z"
         style="opacity:1;fill:#00a1f1;fill-opacity:1;stroke-width:0.22209908"
         inkscape:connector-curvature="0"
         sodipodi:nodetypes="sscssccccc" />
      <path
         inkscape:connector-curvature="0"
         id="path4529-6-3-0"
         d="m -158.47338,148.04404 a 8.4324407,8.7096769 22.58128 0 0 -7.30608,8.27895 l -12.89219,5.51619 a 8.4324407,8.7096769 22.58128 0 0 -8.53259,-4.13375 8.4324407,8.7096769 22.58128 0 0 -7.24367,9.93466 8.4324407,8.7096769 22.58128 0 0 9.5473,7.18442 8.4324407,8.7096769 22.58128 0 0 7.30568,-9.19755 l 12.53239,-5.326 a 8.4324407,8.7096769 22.58128 0 0 8.89282,4.86212 8.4324407,8.7096769 22.58128 0 0 5.11492,-2.88571 l 17.61613,8.76544 0.0281,-0.0425 a 8.4324407,8.7096769 22.58128 0 0 -0.12003,2.99594 8.4324407,8.7096769 22.58128 0 0 9.54732,7.18439 8.4324407,8.7096769 22.58128 0 0 7.24325,-9.93458 8.4324407,8.7096769 22.58128 0 0 -0.6666,-2.34717 l 13.73832,-12.32868 a 8.4324407,8.7096769 22.58128 0 0 6.522235,1.73922 8.4324407,8.7096769 22.58128 0 0 7.24327,-9.93456 8.4324407,8.7096769 22.58128 0 0 -9.54691,-7.18447 8.4324407,8.7096769 22.58128 0 0 -7.243615,9.93465 8.4324407,8.7096769 22.58128 0 0 0.42654,1.73 l -14.036,12.54614 a 8.4324407,8.7096769 22.58128 0 0 -5.98412,-1.33962 8.4324407,8.7096769 22.58128 0 0 -5.06396,2.82359 l -17.6767,-8.7499 a 8.4324407,8.7096769 22.58128 0 0 0.10112,-2.90688 8.4324407,8.7096769 22.58128 0 0 -9.54689,-7.1845 z"
         style="opacity:1;fill:#b7bec8;fill-opacity:1;stroke-width:0.21722342" />
      <path
         inkscape:connector-curvature="0"
         id="path4655"
         d="m -143.64908,173.19039 c -0.50845,-2.72491 -2.54655,-8.63548 -4.20182,-12.18536 -2.12502,-4.55733 -4.67184,-8.41103 -10.44937,-15.81135 -7.07638,-9.06402 -8.6549,-11.59943 -10.31225,-16.56327 -1.69585,-5.07912 -1.76111,-12.62472 -0.14689,-16.98559 1.65516,-4.4715 5.87347,-9.46472 10.70799,-12.675042 2.66971,-1.77282 7.50701,-3.44418 11.35053,-3.92179 7.2422,-0.89996 14.96436,1.37448 20.60529,6.068902 6.34258,5.27834 9.56513,12.60415 8.93899,20.32099 -0.60429,7.44758 -2.54396,11.7634 -9.91137,22.05272 -7.3381,10.24843 -10.81219,16.52311 -13.93443,25.1674 -0.75182,2.08153 -1.59172,4.29141 -1.86643,4.91085 l -0.49948,1.12625 z m 5.44864,-42.59729 c 2.29093,-0.98552 4.29387,-3.10923 5.63991,-5.97995 0.83389,-1.77843 0.9967,-2.654 0.9936,-5.34381 -0.004,-3.82456 -0.76599,-5.81659 -3.25707,-8.51906 -2.50654,-2.71925 -4.07712,-3.3934 -7.90372,-3.3925 -2.74905,7.6e-4 -3.49209,0.14645 -5.10917,1.00243 -4.14769,2.19554 -6.23492,5.80763 -6.24086,10.80032 -0.005,4.04832 0.91821,6.57438 3.27621,8.96616 1.71786,1.74249 3.14609,2.6774 5.04371,3.30163 1.50694,0.49572 5.48571,0.0559 7.55739,-0.83522 z"
         style="fill:#ffffff;fill-opacity:1;stroke-width:0.37845737" />
    </g>
    <text
       id="text828-36"
       y="51.153229"
       x="61.279663"
       style="font-style:normal;font-variant:normal;font-weight:bold;font-stretch:normal;font-size:18.60611725px;line-height:0.80000001;font-family:Roboto;-inkscape-font-specification:'Roboto Bold';text-align:center;letter-spacing:0px;word-spacing:0px;text-anchor:middle;fill:#ffffff;fill-opacity:1;stroke:none;stroke-width:0.46515387"
       xml:space="preserve"><tspan
         style="font-style:normal;font-variant:normal;font-weight:500;font-stretch:normal;line-height:0.80000001;font-family:Roboto;-inkscape-font-specification:'Roboto Medium';text-align:start;text-anchor:start;fill:#ffffff;fill-opacity:1;stroke-width:0.46515387"
         y="51.153229"
         x="61.279663"
         sodipodi:role="line"
         id="tspan838">Visualize</tspan><tspan
         style="font-style:normal;font-variant:normal;font-weight:500;font-stretch:normal;line-height:0.80000001;font-family:Roboto;-inkscape-font-specification:'Roboto Medium';text-align:start;text-anchor:start;fill:#ffffff;fill-opacity:1;stroke-width:0.46515387"
         y="66.038124"
         x="61.279663"
         sodipodi:role="line"
         id="tspan4672">Your Region</tspan></text>
  </g>
</svg>
